<svg width="893" height="494" viewBox="0 0 893 494" fill="none" xmlns="http://www.w3.org/2000/svg">
<rect width="893" height="494" rx="8" fill="#00B0FF"/>
<path d="M734.218 330.125C716.712 330.125 699.6 324.951 685.044 315.258C670.489 305.564 659.144 291.786 652.445 275.667C645.746 259.547 643.993 241.809 647.408 224.697C650.824 207.584 659.253 191.865 671.632 179.527C684.01 167.19 699.781 158.788 716.95 155.384C734.119 151.98 751.916 153.727 768.089 160.404C784.262 167.081 798.085 178.388 807.811 192.896C817.536 207.403 822.727 224.459 822.727 241.907C822.701 265.296 813.368 287.719 796.774 304.258C780.181 320.796 757.684 330.099 734.218 330.125ZM734.218 157.018C717.373 157.018 700.906 161.997 686.9 171.324C672.894 180.652 661.977 193.91 655.531 209.421C649.085 224.933 647.398 242.001 650.684 258.468C653.971 274.935 662.082 290.061 673.993 301.933C685.905 313.805 701.08 321.89 717.602 325.165C734.123 328.441 751.248 326.759 766.811 320.334C782.373 313.909 795.675 303.029 805.034 289.069C814.392 275.109 819.387 258.697 819.387 241.907C819.362 219.401 810.38 197.824 794.413 181.91C778.446 165.996 756.798 157.044 734.218 157.018V157.018Z" fill="#FFD600" stroke="#FFD600" stroke-width="2"/>
<path d="M777.637 238.579H737.558V198.63H730.877V238.579H690.798V245.236H730.877V285.185H737.558V245.236H777.637V238.579Z" fill="#FFD600" stroke="#FFD600" stroke-width="2"/>
<path d="M291.255 451.709H595.71V453.814H291.255V451.709Z" fill="#3F3D56"/>
<path d="M576.952 273.586C577.191 273.214 577.39 272.818 577.544 272.403L582.395 259.414C582.96 257.897 582.9 256.218 582.228 254.745C581.556 253.272 580.327 252.126 578.811 251.558L470.531 211.134C469.014 210.569 467.334 210.629 465.861 211.301C464.388 211.973 463.241 213.201 462.673 214.717L457.822 227.707C457.542 228.458 457.412 229.257 457.44 230.059C457.469 230.86 457.655 231.648 457.988 232.377C458.32 233.107 458.794 233.764 459.381 234.31C459.967 234.857 460.656 235.283 461.408 235.563L569.686 275.987C570.99 276.474 572.42 276.501 573.741 276.064C575.063 275.627 576.195 274.753 576.952 273.586V273.586Z" fill="#FFD600"/>
<path d="M470.876 207.777L514.908 225.332C516.295 225.749 517.469 226.684 518.185 227.943C518.901 229.203 519.104 230.689 518.753 232.095L513.643 252.551C513.441 253.359 513.063 254.112 512.535 254.756C512.007 255.401 511.343 255.92 510.591 256.277C509.838 256.634 509.016 256.82 508.183 256.821C507.35 256.823 506.527 256.639 505.773 256.285L461.62 235.506C460.221 234.981 459.087 233.924 458.467 232.565C457.846 231.206 457.789 229.657 458.308 228.257L463.616 211.088C464.14 209.688 465.199 208.552 466.561 207.931C467.922 207.31 469.474 207.255 470.876 207.777V207.777Z" fill="#2F2E41"/>
<path d="M390.295 335.218C391.678 335.377 393.073 335.059 394.25 334.318C395.428 333.577 396.317 332.456 396.771 331.141L434.461 221.898C434.723 221.14 434.833 220.338 434.784 219.538C434.736 218.737 434.53 217.954 434.179 217.233C433.828 216.512 433.338 215.868 432.738 215.336C432.137 214.804 431.438 214.396 430.68 214.135L417.57 209.613C416.039 209.086 414.361 209.188 412.905 209.897C411.449 210.606 410.334 211.864 409.805 213.394L372.115 322.638C371.588 324.169 371.691 325.846 372.4 327.301C373.109 328.757 374.367 329.872 375.897 330.401L389.006 334.922C389.424 335.067 389.856 335.166 390.295 335.218V335.218Z" fill="#FFD600"/>
<path d="M406.996 211.525L392.531 256.659C391.97 257.995 391.945 259.495 392.461 260.849C392.977 262.202 393.995 263.305 395.303 263.928L414.339 273C415.091 273.358 415.913 273.546 416.746 273.548C417.579 273.551 418.403 273.369 419.157 273.016C419.911 272.663 420.578 272.146 421.109 271.505C421.64 270.863 422.022 270.112 422.228 269.304L434.283 222.026C434.768 220.613 434.673 219.066 434.019 217.723C433.366 216.379 432.206 215.35 430.795 214.859L414.17 208.032C412.756 207.545 411.206 207.64 409.86 208.295C408.515 208.949 407.485 210.111 406.996 211.525V211.525Z" fill="#2F2E41"/>
<path d="M450.795 452.328H464.662C466.281 452.326 467.834 451.682 468.979 450.538C470.124 449.393 470.768 447.841 470.769 446.222V330.661C470.768 329.042 470.124 327.49 468.979 326.346C467.834 325.201 466.281 324.557 464.662 324.555H450.795C449.175 324.557 447.623 325.201 446.478 326.346C445.333 327.49 444.689 329.042 444.687 330.661V446.222C444.689 447.841 445.333 449.393 446.478 450.538C447.623 451.682 449.175 452.326 450.795 452.328Z" fill="#2F2E41"/>
<path d="M423.366 452.328H437.234C438.853 452.326 440.406 451.682 441.551 450.538C442.695 449.393 443.339 447.841 443.341 446.222V330.661C443.339 329.042 442.695 327.49 441.551 326.346C440.406 325.201 438.853 324.557 437.234 324.555H423.366C421.747 324.557 420.195 325.201 419.05 326.346C417.905 327.49 417.261 329.042 417.259 330.661V446.222C417.261 447.841 417.905 449.393 419.05 450.538C420.195 451.682 421.747 452.326 423.366 452.328Z" fill="#2F2E41"/>
<path d="M411.937 344.247H474.948C476.692 344.245 478.363 343.552 479.596 342.319C480.83 341.086 481.523 339.415 481.525 337.671V235.328C481.525 225.23 477.513 215.545 470.371 208.405C463.229 201.264 453.543 197.253 443.443 197.253C433.343 197.253 423.656 201.264 416.514 208.405C409.372 215.545 405.36 225.23 405.36 235.328V337.671C405.362 339.415 406.056 341.086 407.289 342.319C408.522 343.552 410.194 344.245 411.937 344.247Z" fill="#CCCCCC"/>
<path d="M402.453 369.282H434.399V188.77L433.805 188.932C424.808 191.402 416.87 196.753 411.206 204.166C405.543 211.579 402.468 220.645 402.453 229.973V369.282Z" fill="#2F2E41"/>
<path d="M455.083 369.282H487.029V229.973C487.013 220.645 483.938 211.579 478.275 204.166C472.612 196.753 464.674 191.402 455.677 188.932L455.083 188.77V369.282Z" fill="#2F2E41"/>
<path d="M443.919 176.083C416.147 176.083 393.634 153.574 393.634 125.807C393.634 98.04 416.147 75.5305 443.919 75.5305C471.691 75.5305 494.205 98.04 494.205 125.807C494.205 153.574 471.691 176.083 443.919 176.083Z" fill="#FFD600"/>
<path d="M387.068 114.232C387.068 114.232 384.249 36.2614 420.893 61.6253C420.893 61.6253 442.033 -9.29978 493.71 96.8531L508.744 111.884C508.744 111.884 441.094 102.489 378.142 131.611L387.068 114.232Z" fill="#2F2E41"/>
<path d="M443.152 150.706C446.258 150.62 450.124 150.512 453.102 148.337C453.989 147.663 454.718 146.803 455.237 145.817C455.757 144.832 456.054 143.745 456.109 142.632C456.163 141.841 456.033 141.049 455.73 140.317C455.427 139.585 454.958 138.932 454.361 138.411C452.806 137.097 450.534 136.789 448.086 137.508L450.623 118.978L448.761 118.723L445.779 140.507L447.334 139.794C449.137 138.968 451.611 138.547 453.148 139.846C453.526 140.186 453.82 140.608 454.008 141.079C454.196 141.551 454.272 142.06 454.231 142.566C454.186 143.394 453.962 144.203 453.576 144.937C453.19 145.671 452.651 146.313 451.994 146.819C449.676 148.512 446.595 148.73 443.1 148.828L443.152 150.706Z" fill="#2F2E41"/>
<path d="M459.83 120.576H469.951V122.455H459.83V120.576Z" fill="#2F2E41"/>
<path d="M427.884 120.576H438.005V122.455H427.884V120.576Z" fill="#2F2E41"/>
</svg>
